<svg xmlns="http://www.w3.org/2000/svg" viewBox="0 0 724.35 307.18">
<defs><style>.a{fill:#471b00;}.b{fill:#be2b23;}.c{fill:#ef4e22;}.d{fill:#f78a2b;}</style></defs><title>Asset 1</title><path class="a" d="M127.37,103.54,27,166.48V292.74a13.52,13.52,0,0,1-27,0V22.82c0-7,6.29-13,13.7-13a13.08,13.08,0,0,1,7,2.22l107,68.5c3.7,2.59,6.29,6.67,6.29,11.11A14.16,14.16,0,0,1,127.37,103.54ZM27,47.63v87l68.5-42.95Z"/><path class="b" d="M247,168,139.21,302.36a12.6,12.6,0,0,1-10.36,4.82c-7.41,0-13.7-5.93-13.7-13a13.22,13.22,0,0,1,3-8.52l90.34-112.93h-79.6a13.59,13.59,0,0,1-13.7-13.32,14.83,14.83,0,0,1,3-8.52L208.45,38.37h-79.6a13.91,13.91,0,0,1-13.7-13.7c0-7,6.29-13.33,13.7-13.33H236.22a13.59,13.59,0,0,1,13.7,13.33,13.2,13.2,0,0,1-3,8.52L156.62,146.12h79.6a13.59,13.59,0,0,1,13.7,13.33A14.82,14.82,0,0,1,247,168Z"/><path class="b" d="M412.46,284.22,311.38,158l29.72-37.12,36.36-45.13c4.81-5.93,3.7-14.07-2.22-18.89-5.56-4.81-14.07-3.7-18.89,2.23l-48.67,59.13v-95A13.28,13.28,0,0,0,294.35,9.86a13.59,13.59,0,0,0-13.7,13.33V292.74a13.59,13.59,0,0,0,13.7,13.33,13.28,13.28,0,0,0,13.33-13.33V196.47l83.67,104.41a13.72,13.72,0,0,0,10.74,5.19,12.91,12.91,0,0,0,8.15-3C416.16,298.29,417.27,290.15,412.46,284.22Z"/><path class="c" d="M465.3,9.88a12.16,12.16,0,0,0-9.64,4.75L392.91,92.92a13.13,13.13,0,0,0-2.58,7.64,12.49,12.49,0,0,0,12.58,12.37,12.76,12.76,0,0,0,9.64-4.54l40.37-50.55v121A12.43,12.43,0,0,0,465.3,191c6.82,0,12.58-5.56,12.58-12.15V22.25A12.49,12.49,0,0,0,465.3,9.88Z"/><path class="c" d="M559.94,9.88a12.15,12.15,0,0,0-9.63,4.75L487.55,92.92a13.13,13.13,0,0,0-2.58,7.64,12.5,12.5,0,0,0,12.59,12.37h50v65.93A12.42,12.42,0,0,0,559.94,191c6.82,0,12.59-5.56,12.59-12.15V22.25A12.5,12.5,0,0,0,559.94,9.88ZM547.57,57.83V88.18H523.31Z"/><path class="d" d="M620.31,148.1,721.39,274.36a13.2,13.2,0,0,1,3,8.52A13.46,13.46,0,0,1,700.28,291L592.91,156.62a12.55,12.55,0,0,1,0-17L700.28,5.18a13.46,13.46,0,0,1,24.07,8.15,13.24,13.24,0,0,1-3,8.52Z"/></svg>
