<svg xmlns="http://www.w3.org/2000/svg" xmlns:xlink="http://www.w3.org/1999/xlink" viewBox="0 0 756.4 393.28"><defs><style>.a{fill:url(#a);}.b{fill:url(#b);}.c{fill:url(#c);}.d{fill:url(#d);}.e{fill:url(#e);}.f{fill:url(#f);}</style><linearGradient id="a" x1="287.27" y1="162.81" x2="130.47" y2="89.69" gradientUnits="userSpaceOnUse"><stop offset="0" stop-color="#f78a2b"/><stop offset="0.68" stop-color="#ef4e22"/></linearGradient><linearGradient id="b" x1="538.72" y1="166.25" x2="404.49" y2="103.65" xlink:href="#a"/><linearGradient id="c" x1="452.94" y1="194.33" x2="274.98" y2="111.34" xlink:href="#a"/><linearGradient id="d" x1="672.69" y1="162.01" x2="524.68" y2="93" xlink:href="#a"/><linearGradient id="e" x1="131.65" y1="301.54" x2="-14.52" y2="233.38" xlink:href="#a"/><linearGradient id="f" x1="786.22" y1="205.43" x2="681.22" y2="156.47" xlink:href="#a"/></defs><title>p4k14c_logo</title><polygon class="a" points="285.98 0.81 177.99 0.81 166 13.49 177.99 26.18 254.05 26.18 162.92 137.46 161 139.49 161.14 139.64 161 139.81 166.44 145.24 172.99 152.18 254.38 152.18 174.97 251.09 174.48 271.61 194.41 266.69 298 139.81 285.98 126.81 205.42 126.81 298 12.81 285.98 0.81"/><polygon class="b" points="467.42 12.05 467.33 12.06 419.63 71.19 422.02 88.49 439.42 87.07 467.16 52.68 467.16 265.29 479.85 277.28 492.53 265.29 492.53 12.3 479.85 0.3 467.42 12.05"/><polygon class="c" points="357.28 190.29 412.12 121.94 409.73 104.64 392.33 106.06 346.53 163.15 346.53 12.3 333.85 0.3 321.16 12.3 321.16 265.29 333.85 277.28 346.53 265.29 346.53 214.73 398.05 265.74 418.4 268.38 415.61 248.05 357.28 190.29"/><polygon class="d" points="624.53 126.81 624.53 88.3 611.85 76.31 600 88.81 599.82 126.81 547.9 126.81 635.68 17.29 633.29 0 615.89 1.42 504.86 137.52 503 139.49 503.14 139.64 503 139.81 503.3 139.81 514.99 152.18 599.7 152.18 599.16 265.29 611.85 277.28 624.53 265.29 624.53 152.18 643.98 152.18 655.98 139.49 643.98 126.81 624.53 126.81"/><polygon class="e" points="151.06 253.46 51.09 131.42 33.69 130 31.3 147.29 108.05 242.81 56.16 242.81 55.98 204.81 44.13 192.31 31.44 204.3 31.44 242.81 11.99 242.81 0 255.49 11.99 268.18 31.44 268.18 31.44 381.29 44.13 393.28 56.82 381.29 56.28 268.18 140.98 268.18 152.68 255.81 152.98 255.81 152.84 255.64 152.98 255.49 151.06 253.46"/><polygon class="f" points="753.61 249.05 697.07 193.06 754.12 121.94 751.73 104.64 734.33 106.06 663.63 194.19 664.35 194.78 663.87 195.26 736.05 266.74 756.4 269.38 753.61 249.05"/></svg>